<?xml version="1.0" encoding="UTF-8"?>
<svg viewBox="0 0 611 222" xmlns="http://www.w3.org/2000/svg">
  <path d="m29.184 212.2v-144.4h19.672l1.2557 9.8359c4.4645-4.046 9.3475-7.0456 14.649-8.9988s11.58-2.9298 18.835-2.9298c14.231 0 25.322 3.9064 33.275 11.719 7.952 7.6733 11.928 20.439 11.928 38.297s-4.115 31.252-12.347 40.181c-8.231 8.789-19.462 13.184-33.693 13.184-11.998 0-22.253-2.791-30.763-8.371v51.481h-22.811zm47.714-60.271c19.253 0 28.879-12.138 28.879-36.413 0-11.72-2.162-20.021-6.4872-24.904-4.325-5.0226-11.58-7.5338-21.764-7.5338-10.185 0-18.695 3.4879-25.531 10.464v49.598c3.2089 2.651 6.7665 4.813 10.673 6.487 4.0459 1.535 8.7894 2.302 14.231 2.302zm74.089 15.068v-99.196h20.927l1.256 11.51c4.743-3.0693 10.394-5.8596 16.951-8.3709s13.045-4.2552 19.462-5.2318v17.37c-3.906 0.6975-8.161 1.7439-12.765 3.1391-4.465 1.2556-8.72 2.7205-12.766 4.3947-4.046 1.5347-7.464 3.1391-10.254 4.8133v71.572h-22.811zm121.35 2.093c-17.3 0-30.694-4.255-40.181-12.766-9.487-8.51-14.23-21.555-14.23-39.134 0-15.905 4.046-28.461 12.138-37.669 8.091-9.208 20.369-13.812 36.832-13.812 15.067 0 26.368 3.9762 33.902 11.929 7.673 7.8128 11.51 17.928 11.51 30.345v18.416h-72.618c1.116 9.627 4.604 16.254 10.464 19.881 5.859 3.627 14.788 5.441 26.787 5.441 5.022 0 10.184-0.488 15.486-1.465 5.302-0.976 9.906-2.232 13.812-3.767v16.742c-4.464 1.953-9.627 3.418-15.486 4.395-5.72 0.976-11.859 1.465-18.416 1.465zm-32.647-57.55h52.528v-6.906c0-6.8367-1.884-12.138-5.651-15.905-3.767-3.9064-10.115-5.8596-19.044-5.8596-10.603 0-17.927 2.302-21.973 6.906-3.907 4.604-5.86 11.859-5.86 21.765zm100.89 55.457v-81.407h-14.44v-17.788h14.44v-12.138c0-9.9057 2.72-17.858 8.161-23.857 5.581-6.1387 13.812-9.2081 24.695-9.2081 4.046 0 7.743 0.3488 11.091 1.0464 3.349 0.5581 6.418 1.3952 9.208 2.5113v16.323c-4.325-1.5346-8.72-2.302-13.184-2.302-6.557 0-11.092 1.1859-13.603 3.5577-2.511 2.3717-3.767 6.4177-3.767 12.138v11.929h25.95l-1.046 17.788h-24.904v81.407h-22.601zm88.871 2.093c-6.279 0-12.138-1.116-17.579-3.349-5.302-2.232-9.557-5.58-12.766-10.045-3.209-4.604-4.813-10.254-4.813-16.951 0-9.487 3.209-17.091 9.626-22.811 6.558-5.859 16.603-8.789 30.136-8.789h31.809v-4.395c0-4.7435-0.767-8.5104-2.302-11.301-1.395-2.7903-4.046-4.8133-7.952-6.0689-3.767-1.2557-9.348-1.8835-16.742-1.8835-11.719 0-22.671 1.744-32.856 5.2318v-16.951c4.465-1.8137 9.906-3.2786 16.323-4.3947 6.418-1.1162 13.324-1.6742 20.718-1.6742 14.51 0 25.532 2.9298 33.066 8.7895 7.673 5.8596 11.51 15.416 11.51 28.671v63.828h-19.463l-1.465-10.045c-4.046 3.906-9.068 6.906-15.067 8.999-5.86 2.092-13.254 3.139-22.183 3.139zm6.069-16.324c6.836 0 12.765-1.116 17.788-3.348 5.162-2.372 9.347-5.511 12.556-9.417v-17.37h-31.391c-6.697 0-11.58 1.325-14.649 3.976-2.93 2.512-4.395 6.418-4.395 11.72 0 5.162 1.744 8.859 5.232 11.091s8.441 3.348 14.859 3.348z" fill="#074B66"/>
  <path d="m545.93 109.38c-0.423 0.206-1.004 0.698-1.29 1.094-0.501 0.692-0.524 0.951-0.591 6.679l-0.07 5.959h23.961v-5.867c0-5.715-0.014-5.888-0.533-6.654-1.079-1.593-1.097-1.596-11.436-1.59-8.059 4e-3 -9.371 0.053-10.041 0.379zm-17.183 14.331c-3.679 2.104-6.927 3.977-7.217 4.164l-0.528 0.339v36.786h15.959v-22.286c0-17.026-0.066-22.352-0.282-22.564-0.155-0.153-0.498-0.275-0.762-0.271-0.265 5e-3 -3.491 1.729-7.17 3.832zm48.463 4.588c-0.947 0.415-1.722 1.282-2 2.238-0.14 0.48-0.229 7.367-0.229 17.625v16.838h15.02v-17.187c0-19.349 0.102-18.25-1.785-19.317-0.863-0.488-1.174-0.516-5.608-0.511-3.393 4e-3 -4.889 0.091-5.398 0.314zm-33.208 5.111v3.587h23.938v-7.174h-23.938v3.587zm0 14.117v3.587h23.938v-7.174h-23.938v3.587zm0 14.002v3.471h23.938v-6.943h-23.938v3.472z" clip-rule="evenodd" fill="#D92344" fill-rule="evenodd"/>
  <path d="m521.53 127.88c0.29-0.187 3.538-2.06 7.217-4.164 3.679-2.103 6.905-3.827 7.17-3.832 0.264-4e-3 0.607 0.118 0.762 0.271 0.216 0.212 0.282 5.538 0.282 22.564v22.286h-15.959v-36.786l0.528-0.339z" fill="#D92344"/>
  <path d="m575.21 130.54c0.278-0.956 1.053-1.823 2-2.238 0.509-0.223 2.005-0.31 5.398-0.314 4.434-5e-3 4.745 0.023 5.608 0.511 1.887 1.067 1.785-0.032 1.785 19.317v17.187h-15.02v-16.838c0-10.258 0.089-17.145 0.229-17.625z" fill="#D92344"/>
  <path d="m544.64 110.47c0.286-0.396 0.867-0.888 1.29-1.094 0.67-0.326 1.982-0.375 10.041-0.379 10.339-6e-3 10.357-3e-3 11.436 1.59 0.519 0.766 0.533 0.939 0.533 6.654v5.867h-23.961l0.07-5.959c0.067-5.728 0.09-5.987 0.591-6.679z" fill="#D92344"/>
  <path d="m544 137v-7.174h23.938v7.174h-23.938z" fill="#D92344"/>
  <path d="m544 151.11v-7.174h23.938v7.174h-23.938z" fill="#D92344"/>
  <path d="m544 165v-6.943h23.938v6.943h-23.938z" fill="#D92344"/>
</svg>
